<?xml version="1.0" standalone="no"?>
<!DOCTYPE svg PUBLIC "-//W3C//DTD SVG 20010904//EN"
 "http://www.w3.org/TR/2001/REC-SVG-20010904/DTD/svg10.dtd">
<svg version="1.0" xmlns="http://www.w3.org/2000/svg"
 width="528.000000pt" height="560.000000pt" viewBox="0 0 528.000000 560.000000"
 preserveAspectRatio="xMidYMid meet">

<g transform="translate(0.000000,560.000000) scale(0.100000,-0.100000)"
fill="#000000" stroke="none">
<path d="M2430 5294 c-221 -27 -487 -131 -652 -254 -94 -71 -248 -227 -311
-318 -68 -96 -168 -294 -196 -388 -11 -38 -30 -113 -42 -165 -22 -92 -22 -114
-29 -1204 -8 -1154 -8 -1156 -55 -1540 -61 -503 -179 -891 -315 -1036 -26 -28
-42 -52 -36 -54 6 -2 58 -14 116 -27 87 -19 135 -23 280 -23 209 0 288 15 418
80 248 125 411 361 495 720 51 214 61 320 62 603 0 258 0 263 20 257 206 -59
348 -85 469 -85 87 0 271 30 385 63 l81 24 0 -161 0 -162 158 -12 c220 -16
377 -56 544 -137 436 -212 739 -629 799 -1098 l12 -90 20 24 c31 37 105 197
122 264 39 144 25 329 -33 470 -16 39 -150 306 -298 595 -148 289 -286 561
-306 605 -109 241 -176 533 -179 782 0 52 -3 70 -8 53 -22 -72 -71 -128 -133
-154 -21 -9 -40 -16 -44 -16 -8 0 1 538 9 546 3 3 31 8 63 11 33 3 67 12 76
20 15 14 18 12 27 -18 7 -25 10 42 10 236 0 149 5 297 11 330 38 226 -32 527
-174 748 -78 119 -226 235 -362 281 -98 34 -237 44 -304 24 l-45 -14 -60 61
c-67 67 -154 115 -256 140 -63 16 -271 27 -339 19z m830 -995 c254 -212 345
-315 428 -487 25 -51 43 -94 41 -96 -2 -2 -44 5 -94 15 -49 10 -115 19 -145
19 -30 1 -73 8 -95 16 -22 9 -76 27 -120 40 -128 40 -332 33 -349 -11 -8 -22
3 -45 22 -45 29 0 -2 -17 -53 -29 -27 -7 -82 -25 -122 -41 -95 -40 -169 -40
-256 -3 -34 14 -93 36 -132 49 -38 12 -63 23 -54 23 20 1 31 24 23 46 -17 44
-221 51 -349 11 -44 -13 -98 -31 -120 -40 -22 -8 -65 -16 -95 -16 -30 0 -74
-5 -97 -9 -24 -5 -40 -4 -37 1 12 20 163 113 277 171 129 66 202 97 597 252
270 106 402 173 482 245 29 26 58 45 63 42 6 -3 89 -72 185 -153z m-1012 -546
c-10 -2 -28 -2 -40 0 -13 2 -5 4 17 4 22 1 32 -1 23 -4z m851 3 c-2 -2 -33 -6
-69 -9 -41 -3 -54 -2 -35 3 31 8 112 13 104 6z m-818 -145 c114 -36 159 -109
159 -259 0 -119 -47 -201 -149 -263 -91 -55 -182 -73 -335 -67 -188 8 -277 53
-330 167 -18 39 -21 65 -21 166 0 113 2 123 27 167 34 56 100 94 149 83 21 -5
36 -2 47 8 26 23 54 26 227 22 130 -2 173 -7 226 -24z m1167 6 c15 -14 29 -17
50 -12 69 15 152 -56 171 -145 36 -169 -10 -293 -138 -371 -91 -55 -182 -73
-335 -67 -188 8 -277 53 -330 167 -18 39 -21 65 -21 166 0 109 2 124 25 163
52 92 156 122 411 119 127 -2 150 -4 167 -20z m-1981 -157 c30 -11 30 -12 37
-102 10 -148 7 -448 -4 -448 -23 0 -89 41 -114 71 -52 62 -60 86 -64 220 -5
134 -3 140 55 232 25 39 40 44 90 27z m1248 -4 l40 -12 6 -104 c8 -133 33
-201 97 -268 92 -96 194 -132 377 -132 190 0 309 43 414 147 l63 63 -7 -72
c-19 -206 -76 -363 -156 -431 -58 -50 -172 -107 -227 -114 -62 -7 -75 6 -120
120 -37 94 -72 137 -145 174 -105 52 -291 66 -384 27 -28 -11 -38 -11 -65 0
-94 39 -280 25 -385 -27 -75 -38 -108 -79 -150 -185 -42 -106 -56 -118 -126
-108 -48 7 -185 81 -229 123 -68 65 -122 215 -136 378 l-8 83 46 -48 c90 -94
193 -130 375 -130 179 0 300 40 400 131 82 75 116 153 123 275 l5 96 31 14
c38 16 107 17 161 0z m-46 -732 c22 -11 76 -18 176 -23 137 -7 145 -9 180 -36
78 -59 121 -207 85 -295 -37 -95 -140 -201 -211 -220 -49 -13 -72 -7 -124 36
-84 68 -188 67 -275 -4 -72 -60 -141 -48 -227 39 -94 93 -135 196 -113 280 19
70 57 136 96 165 33 26 43 28 179 35 122 6 182 17 201 38 0 1 15 -6 33 -15z"/>
<path d="M1984 3466 c-52 -16 -100 -52 -125 -93 -27 -43 -16 -59 21 -33 39 27
105 50 147 50 31 0 34 -2 26 -22 -23 -65 5 -130 65 -155 68 -28 143 15 158 92
12 64 -48 133 -138 160 -61 18 -99 18 -154 1z"/>
<path d="M3144 3466 c-52 -16 -100 -52 -125 -93 -27 -43 -16 -59 21 -33 39 27
105 50 147 50 31 0 34 -2 26 -22 -23 -65 5 -130 65 -155 68 -28 143 15 158 92
12 64 -48 133 -138 160 -61 18 -99 18 -154 1z"/>
<path d="M2364 2579 c15 -91 70 -165 160 -211 63 -33 175 -31 241 4 82 43 137
118 151 207 l7 41 -283 0 -283 0 7 -41z"/>
</g>
</svg>
